HIERARCHY
ROOT Hips
{
	OFFSET 51.262798 -15.275616 94.202499
	CHANNELS 6 Xposition Yposition Zposition Xrotation Yrotation Zrotation
	JOINT spine
	{
		OFFSET 0.000000 -0.448574 7.800591
		CHANNELS 3 Xrotation Yrotation Zrotation
		JOINT spine1
		{
			OFFSET 0.000000 -0.000002 10.136398
			CHANNELS 3 Xrotation Yrotation Zrotation
			JOINT spine2
			{
				OFFSET 0.000000 -0.000002 9.712509
				CHANNELS 3 Xrotation Yrotation Zrotation
				JOINT Neck
				{
					OFFSET 0.000000 -1.188875 24.936104
					CHANNELS 3 Xrotation Yrotation Zrotation
					JOINT Head
					{
						OFFSET 0.000000 0.000000 7.533844
						CHANNELS 3 Xrotation Yrotation Zrotation
						End Site
						{
							OFFSET 0.000000 6.014017 18.236099
						}
					}
				}
				JOINT RightShoulder
				{
					OFFSET -4.089649 0.569455 10.488792
					CHANNELS 3 Xrotation Yrotation Zrotation
					JOINT RightArm
					{
						OFFSET 0.000000 -0.000002 13.757004
						CHANNELS 3 Xrotation Yrotation Zrotation
						JOINT RightArmRoll
						{
							OFFSET 0.000000 -0.000001 6.944778
							CHANNELS 3 Xrotation Yrotation Zrotation
							JOINT RightForeArm
							{
								OFFSET 0.000000 -0.000004 20.227692
								CHANNELS 3 Xrotation Yrotation Zrotation
								JOINT RightForeArmRoll
								{
									OFFSET 0.000000 -0.000001 7.793121
									CHANNELS 3 Xrotation Yrotation Zrotation
									JOINT RightHand
									{
										OFFSET 0.000000 -0.000003 15.639099
										CHANNELS 3 Xrotation Yrotation Zrotation
										End Site
										{
											OFFSET 0.000000 0.000000 0.100006
										}
									}
								}
							}
						}
					}
				}
				JOINT LeftShoulder
				{
					OFFSET 4.089649 0.569455 10.488792
					CHANNELS 3 Xrotation Yrotation Zrotation
					JOINT LeftArm
					{
						OFFSET 0.000000 -0.000002 13.757004
						CHANNELS 3 Xrotation Yrotation Zrotation
						JOINT LeftArmRoll
						{
							OFFSET 0.000000 -0.000001 6.944778
							CHANNELS 3 Xrotation Yrotation Zrotation
							JOINT LeftForeArm
							{
								OFFSET 0.000000 -0.000004 20.227692
								CHANNELS 3 Xrotation Yrotation Zrotation
								JOINT LeftForeArmRoll
								{
									OFFSET 0.000000 -0.000001 7.793121
									CHANNELS 3 Xrotation Yrotation Zrotation
									JOINT LeftHand
									{
										OFFSET 0.000000 -0.000003 15.639099
										CHANNELS 3 Xrotation Yrotation Zrotation
										End Site
										{
											OFFSET 0.000000 0.000000 0.100006
										}
									}
								}
							}
						}
					}
				}
			}
		}
	}
	JOINT RightUpLeg
	{
		OFFSET -6.914158 1.063580 -1.267883
		CHANNELS 3 Xrotation Yrotation Zrotation
		JOINT RightUpLegRoll
		{
			OFFSET 0.000000 -0.000003 18.337799
			CHANNELS 3 Xrotation Yrotation Zrotation
			JOINT RightLeg
			{
				OFFSET 0.000000 0.000004 -22.708496
				CHANNELS 3 Xrotation Yrotation Zrotation
				JOINT RightLegRoll
				{
					OFFSET 0.000000 -0.000004 22.782799
					CHANNELS 3 Xrotation Yrotation Zrotation
					JOINT RightFoot
					{
						OFFSET 0.000000 -0.000003 18.962898
						CHANNELS 3 Xrotation Yrotation Zrotation
						JOINT RightToeBase
						{
							OFFSET 0.000000 -0.000003 15.852005
							CHANNELS 3 Xrotation Yrotation Zrotation
							End Site
							{
								OFFSET 0.006718 0.884891 7.677017
							}
						}
					}
				}
			}
		}
	}
	JOINT LeftUpLeg
	{
		OFFSET 6.914158 1.063580 -1.267883
		CHANNELS 3 Xrotation Yrotation Zrotation
		JOINT LeftUpLegRoll
		{
			OFFSET 0.000000 -0.000003 18.337898
			CHANNELS 3 Xrotation Yrotation Zrotation
			JOINT LeftLeg
			{
				OFFSET 0.000000 -0.000004 22.708397
				CHANNELS 3 Xrotation Yrotation Zrotation
				JOINT LeftLegRoll
				{
					OFFSET 0.000000 -0.000004 22.993393
					CHANNELS 3 Xrotation Yrotation Zrotation
					JOINT LeftFoot
					{
						OFFSET 0.000000 -0.000003 18.752197
						CHANNELS 3 Xrotation Yrotation Zrotation
						JOINT LeftToeBase
						{
							OFFSET 0.000000 -0.000003 15.852005
							CHANNELS 3 Xrotation Yrotation Zrotation
							End Site
							{
								OFFSET -0.030113 0.884892 7.677017
							}
						}
					}
				}
			}
		}
	}
}
MOTION
Frames: 12
Frame Time: 0.041667
51.512505 -13.216112 94.129395 -6.284324 0.759301 2.658485 -0.647844 0.014647 0.255692 2.707100 0.023105 0.507135 4.352160 0.029110 0.506625 18.851194 0.708001 -2.855522 -16.216368 -6.136653 -3.068400 -22.182016 -77.500428 -25.833114 -43.723733 -95.775365 -24.927117 0.000002 -0.000000 0.000002 25.842885 -8.352375 0.392144 0.000001 0.000009 -3.006759 -5.000424 -7.998970 0.000174 -2.027740 62.697667 2.821193 2.979054 107.831577 -16.438677 0.000001 -0.000003 -0.000005 20.782864 4.844467 0.399217 -0.000000 -0.000019 3.000002 -5.000319 7.999439 -0.000101 1.147902 -178.283360 0.675507 -179.999991 0.000005 -1.046995 170.143113 -2.399096 -0.704718 -0.000003 0.000002 0.111731 69.335279 6.460739 3.272896 25.456959 -7.355616 0.000001 0.958347 -179.859030 6.490549 -0.000004 -0.000004 -1.521890 -13.990202 4.787674 0.789629 -0.000004 0.000001 -0.338533 74.718936 -7.869630 1.280666 25.456950 7.355613 -0.000011 
51.512703 -13.215217 94.131798 -6.305167 0.760884 2.695769 -0.641980 0.016845 0.255498 2.718901 0.027944 0.507059 4.363960 0.033953 0.506506 18.797379 0.629218 -2.857955 -16.173044 -6.079675 -3.067067 -22.309676 -77.576032 -25.968007 -44.775701 -95.733530 -25.899727 0.000002 -0.000000 0.000003 25.821959 -8.317377 0.381923 0.000002 0.000010 -3.006760 -5.000426 -7.998970 0.000174 -2.032519 62.655087 2.822159 2.761887 107.885461 -16.103896 0.000001 -0.000003 -0.000002 20.905013 4.882974 0.392469 -0.000003 -0.000020 3.000001 -5.000320 7.999438 -0.000102 1.185188 -178.282363 0.693109 -179.999991 0.000005 -1.046995 170.164136 -2.419938 -0.704429 -0.000004 0.000002 0.111421 69.327916 6.465230 3.258645 25.456959 -7.355616 0.000001 0.966886 -179.868032 6.483988 -0.000004 -0.000004 -1.522110 -14.000530 4.787091 0.790149 -0.000004 0.000001 -0.338939 74.719148 -7.870255 1.282797 25.456950 7.355614 -0.000011 
51.509003 -13.214511 94.132698 -6.326661 0.761820 2.732551 -0.635831 0.019173 0.255429 2.731300 0.033061 0.507245 4.376361 0.039077 0.506645 18.739995 0.550278 -2.860583 -16.126814 -6.022153 -3.065721 -22.438635 -77.650515 -26.104201 -45.818330 -95.695035 -26.865040 0.000002 0.000000 0.000002 25.802916 -8.282970 0.371984 0.000002 0.000010 -3.006761 -5.000422 -7.998971 0.000173 -2.040462 62.611852 2.826699 2.539712 107.940498 -15.766665 0.000001 -0.000002 -0.000004 21.027209 4.919276 0.385692 -0.000000 -0.000019 3.000001 -5.000317 7.999438 -0.000102 1.223258 -178.280382 0.713015 -179.999991 0.000005 -1.046995 170.185050 -2.442759 -0.703461 -0.000003 0.000002 0.111136 69.320853 6.470054 3.243342 25.456957 -7.355616 0.000001 0.976900 -179.875013 6.477660 -0.000004 -0.000004 -1.522320 -14.009757 4.786782 0.790631 -0.000004 0.000002 -0.339281 74.718827 -7.870741 1.284508 25.456952 7.355613 -0.000011 
51.511402 -13.212814 94.132408 -6.348613 0.762294 2.768990 -0.629483 0.021592 0.255446 2.744131 0.038373 0.507613 4.389191 0.044399 0.506964 18.680055 0.471232 -2.863418 -16.078677 -5.964243 -3.064420 -22.568910 -77.724220 -26.241667 -46.857150 -95.659388 -27.827849 0.000002 -0.000002 0.000003 25.785236 -8.248983 0.362254 -0.000001 0.000010 -3.006761 -5.000424 -7.998970 0.000173 -2.050604 62.568194 2.833739 2.314260 107.997735 -15.428028 0.000001 -0.000002 -0.000005 21.149385 4.954047 0.378865 -0.000004 -0.000019 3.000002 -5.000322 7.999439 -0.000101 1.261900 -178.276420 0.734565 -179.999991 0.000005 -1.048006 170.205883 -2.466565 -0.702650 -0.000004 0.000002 0.110871 69.313880 6.475161 3.227182 25.456957 -7.355616 0.000001 0.987946 -179.883018 6.471447 -0.000004 -0.000004 -1.522520 -14.018286 4.786655 0.791089 -0.000004 0.000001 -0.339578 74.718130 -7.871152 1.285904 25.456948 7.355613 -0.000011 
51.508602 -13.191613 94.060997 -6.370837 0.762490 2.805221 -0.623026 0.024064 0.255514 2.757201 0.043797 0.508083 4.402251 0.049833 0.507386 18.618752 0.392127 -2.866437 -16.029462 -5.906113 -3.063191 -22.700439 -77.797337 -26.380397 -47.898385 -95.626125 -28.793912 0.000002 -0.000000 0.000002 25.768190 -8.215241 0.352620 0.000001 0.000009 -3.006761 -5.000426 -7.998969 0.000173 -2.061969 62.524105 2.842168 2.087616 108.055218 -15.089401 0.000001 -0.000004 -0.000004 21.271550 4.987930 0.371954 -0.000004 -0.000019 3.000002 -5.000320 7.999438 -0.000101 1.300838 -178.272445 0.757032 -179.999991 0.000005 -1.048005 170.226633 -2.491356 -0.701994 -0.000003 0.000002 0.110616 69.307036 6.480347 3.210832 25.456959 -7.355616 0.000001 0.999581 -179.890012 6.465339 -0.000005 -0.000004 -1.522730 -14.026417 4.786632 0.791534 -0.000004 0.000002 -0.339849 74.717120 -7.871618 1.287372 25.456952 7.355613 -0.000011 
51.509502 -13.194216 94.070503 -6.393112 0.762598 2.841404 -0.616534 0.026550 0.255593 2.770322 0.049248 0.508578 4.415382 0.055295 0.507831 18.557183 0.313013 -2.869630 -15.979873 -5.847932 -3.062034 -22.833582 -77.870290 -26.520735 -48.949210 -95.594795 -29.769868 0.000002 0.000000 0.000003 25.751268 -8.181564 0.343031 0.000001 0.000009 -3.006760 -5.000424 -7.998969 0.000174 -2.073627 62.480016 2.850917 1.861563 108.112940 -14.751667 0.000001 -0.000002 -0.000002 21.393734 5.021590 0.364913 -0.000002 -0.000020 2.999999 -5.000319 7.999438 -0.000102 1.339871 -178.268484 0.779734 -179.999991 0.000005 -1.049003 170.247383 -2.516150 -0.701320 -0.000003 0.000002 0.110363 69.300213 6.485610 3.194196 25.456957 -7.355616 0.000001 1.011360 -179.897033 6.459238 -0.000005 -0.000004 -1.522930 -14.034347 4.786642 0.791968 -0.000004 0.000001 -0.340114 74.716088 -7.872033 1.288744 25.456953 7.355614 -0.000011 
51.507904 -13.216713 94.131401 -6.415250 0.762800 2.877685 -0.610103 0.029008 0.255647 2.783331 0.054644 0.509018 4.428383 0.060702 0.508221 18.496260 0.233939 -2.872988 -15.930924 -5.789866 -3.061007 -22.968540 -77.943476 -26.662878 -50.018384 -95.564920 -30.763759 0.000002 -0.000001 0.000002 25.734146 -8.147748 0.333431 0.000001 0.000010 -3.006761 -5.000423 -7.998969 0.000174 -2.084623 62.436132 2.858924 1.637758 108.171933 -14.415710 0.000001 -0.000002 -0.000005 21.516057 5.055683 0.357686 -0.000004 -0.000020 3.000002 -5.000320 7.999439 -0.000103 1.378729 -178.264509 0.801986 -179.999991 0.000005 -1.049003 170.268160 -2.540946 -0.700641 -0.000003 0.000002 0.110105 69.293273 6.490828 3.177857 25.456959 -7.355616 0.000001 1.022849 -179.904027 6.453103 -0.000005 -0.000004 -1.523130 -14.042574 4.786587 0.792414 -0.000003 0.000002 -0.340392 74.715173 -7.872456 1.290022 25.456953 7.355613 -0.000011 
51.504803 -13.205915 94.109299 -6.437054 0.763286 2.914224 -0.603813 0.031402 0.255637 2.796031 0.059901 0.509323 4.441082 0.065967 0.508479 18.437269 0.154952 -2.876487 -15.883508 -5.732078 -3.060134 -23.105423 -78.017119 -26.806968 -51.112454 -95.536274 -31.781775 0.000002 -0.000001 0.000002 25.716005 -8.113631 0.323704 0.000001 0.000009 -3.006761 -5.000423 -7.998970 0.000173 -2.094010 62.392480 2.865097 1.418109 108.230221 -14.082853 0.000000 -0.000003 -0.000005 21.638236 5.090856 0.350247 -0.000003 -0.000020 3.000001 -5.000320 7.999439 -0.000101 1.417199 -178.261531 0.823081 -179.999991 0.000005 -1.049003 170.289006 -2.564763 -0.699759 -0.000003 0.000002 0.109834 69.286286 6.495871 3.161992 25.456959 -7.355616 0.000001 1.033599 -179.911008 6.446867 -0.000004 -0.000004 -1.523340 -14.051305 4.786405 0.792879 -0.000004 0.000001 -0.340701 74.714613 -7.872900 1.291623 25.456950 7.355614 -0.000011 
51.500202 -13.200317 94.131294 -6.458326 0.764242 2.951159 -0.597752 0.033691 0.255527 2.808262 0.064936 0.509416 4.453314 0.071007 0.508526 18.381118 0.076099 -2.880077 -15.838346 -5.674729 -3.059398 -23.244326 -78.091513 -26.953074 -52.240934 -95.508516 -32.832692 0.000002 -0.000001 0.000000 25.696522 -8.079014 0.313836 0.000002 0.000011 -3.006761 -5.000424 -7.998969 0.000173 -2.100858 62.349464 2.868396 1.204302 108.287779 -13.753885 0.000001 -0.000002 -0.000004 21.760506 5.127772 0.342525 -0.000004 -0.000020 3.000000 -5.000317 7.999439 -0.000102 1.455037 -178.259564 0.842329 -179.999991 0.000005 -1.050000 170.309934 -2.586617 -0.699517 -0.000003 0.000002 0.109542 69.279196 6.500598 3.146974 25.456957 -7.355616 0.000001 1.043177 -179.919013 6.440444 -0.000004 -0.000004 -1.523550 -14.060832 4.786013 0.793369 -0.000004 0.000001 -0.341062 74.714415 -7.873424 1.293438 25.456950 7.355615 -0.000011 
51.501305 -13.200814 94.128105 -6.478878 0.765854 2.988649 -0.591995 0.035835 0.255279 2.819812 0.069663 0.509217 4.464865 0.075738 0.508284 18.329103 -0.002571 -2.883739 -15.796348 -5.617978 -3.058829 -23.385480 -78.166993 -27.101438 -53.412940 -95.481421 -33.925171 0.000002 -0.000001 0.000003 25.674983 -8.043724 0.303718 0.000002 0.000011 -3.006760 -5.000421 -7.998971 0.000172 -2.104234 62.307199 2.867755 0.997947 108.345604 -13.429532 0.000001 -0.000002 -0.000003 21.882888 5.167073 0.334460 -0.000001 -0.000020 3.000003 -5.000318 7.999439 -0.000103 1.492007 -178.259591 0.859020 -179.999991 0.000005 -1.050000 170.331039 -2.606496 -0.697918 -0.000003 0.000002 0.109221 69.271785 6.504962 3.133209 25.456959 -7.355617 0.000001 1.051129 -179.928015 6.433791 -0.000005 -0.000004 -1.523770 -14.071557 4.785324 0.793901 -0.000005 0.000001 -0.341494 74.714941 -7.874020 1.295595 25.456952 7.355614 -0.000011 
51.503506 -13.194114 94.130890 -6.498509 0.768310 3.026855 -0.586639 0.037796 0.254856 2.830532 0.074001 0.508650 4.475585 0.080073 0.507680 18.282116 -0.081012 -2.887416 -15.758411 -5.562003 -3.058444 -23.529255 -78.243956 -27.252441 -54.637125 -95.454913 -35.067284 0.000001 -0.000001 0.000003 25.650974 -8.007571 0.293309 0.000002 0.000010 -3.006762 -5.000424 -7.998971 0.000173 -2.103211 62.265890 2.862137 0.800790 108.401680 -13.111040 0.000001 -0.000002 -0.000006 22.005215 5.209426 0.325985 0.000000 -0.000020 3.000000 -5.000318 7.999439 -0.000102 1.527859 -178.262610 0.872439 -179.999991 0.000005 -1.050000 170.352322 -2.623414 -0.696803 -0.000003 0.000002 0.108863 69.264238 6.508827 3.120764 25.456957 -7.355617 0.000002 1.057017 -179.938014 6.426834 -0.000004 -0.000004 -1.524000 -14.083880 4.784251 0.794493 -0.000004 0.000001 -0.342016 74.716218 -7.874738 1.298189 25.456955 7.355614 -0.000011 
51.502804 -13.192113 94.131798 -6.517005 0.771800 3.065906 -0.581762 0.039535 0.254220 2.840222 0.077865 0.507635 4.485275 0.083928 0.506630 18.241274 -0.159178 -2.891058 -15.725353 -5.506964 -3.058234 -23.675983 -78.322708 -27.406435 -55.923198 -95.428924 -36.268250 0.000002 -0.000001 0.000004 25.623981 -7.970361 0.282538 0.000001 0.000009 -3.006761 -5.000422 -7.998970 0.000174 -2.096879 62.225872 2.850499 0.614402 108.456997 -12.798894 0.000001 -0.000003 -0.000005 22.127608 5.255479 0.317045 -0.000002 -0.000019 3.000000 -5.000317 7.999438 -0.000101 1.562360 -178.268648 0.881894 -179.999991 0.000005 -1.050998 170.373823 -2.637386 -0.696150 -0.000003 0.000002 0.108460 69.256301 6.512116 3.110132 25.456957 -7.355616 0.000001 1.060396 -179.948014 6.419542 -0.000005 -0.000004 -1.524250 -14.097901 4.782736 0.795139 -0.000005 0.000001 -0.342647 74.718445 -7.875579 1.301332 25.456947 7.355614 -0.000011 
